<?xml version="1.0" encoding="utf-8"?>
<!-- Generator: Adobe Illustrator 27.5.0, SVG Export Plug-In . SVG Version: 6.00 Build 0)  -->
<svg version="1.1" id="Layer_1" xmlns="http://www.w3.org/2000/svg" xmlns:xlink="http://www.w3.org/1999/xlink" x="0px" y="0px"
	 viewBox="0 0 24 23.4" style="enable-background:new 0 0 24 23.4;" xml:space="preserve">
<path d="M10.5,10.4c-0.1-0.3-0.2-0.6-0.3-0.9S10.1,8.9,10,8.6C9.9,8.3,9.8,8.1,9.7,7.8h0C9.6,8.3,9.5,8.7,9.4,9.1
	c-0.1,0.5-0.3,1-0.5,1.5c-0.1,0.5-0.3,1-0.4,1.4H11c-0.1-0.2-0.1-0.5-0.2-0.7C10.7,11,10.6,10.7,10.5,10.4z M19.8,0H4.2
	C1.9,0,0,1.9,0,4.2v14.9c0,2.4,1.9,4.2,4.2,4.2h15.5c2.4,0,4.2-1.9,4.2-4.2V4.2C24,1.9,22.1,0,19.8,0z M14.7,16.5h-2.1
	c-0.1,0-0.1,0-0.2-0.1L11.6,14H7.9l-0.8,2.4c0,0.1-0.1,0.1-0.2,0.1H5.1c-0.1,0-0.1-0.1-0.1-0.2l3.2-9.3c0-0.1,0.1-0.2,0.1-0.3
	c0-0.2,0.1-0.4,0.1-0.7C8.3,6,8.4,6,8.4,6H11c0.1,0,0.1,0,0.1,0.1l3.7,10.3C14.8,16.5,14.8,16.5,14.7,16.5z M18.1,16.4
	c0,0.1,0,0.2-0.1,0.2h-2c-0.1,0-0.1-0.1-0.1-0.2V8.7c0-0.1,0-0.1,0.1-0.1h2c0.1,0,0.1,0.1,0.1,0.1V16.4z M17.9,7.4
	c-0.2,0.2-0.6,0.4-0.9,0.4c-0.3,0-0.6-0.1-0.9-0.3c-0.2-0.2-0.4-0.6-0.3-0.9c0-0.3,0.1-0.7,0.4-0.9c0.2-0.2,0.6-0.3,0.9-0.3
	c0.4,0,0.7,0.1,0.9,0.3c0.2,0.2,0.3,0.6,0.3,0.9C18.2,6.8,18.1,7.1,17.9,7.4z"/>
</svg>
