<svg width="64" height="64" viewBox="0 0 64 64" fill="none" xmlns="http://www.w3.org/2000/svg">
<g clip-path="url(#clip0_119_8)">
<path d="M57.116 7.10497L57.116 6.03695L58.1825 6.03846L58.184 7.10497L57.116 7.10497ZM57.116 8.17298L45.048 8.17298L45.048 6.03695L57.116 6.03695L57.116 8.17298ZM58.184 7.10497L58.184 19.1729L56.048 19.1729L56.048 7.10497L58.184 7.10497ZM57.8702 7.85921L39.0141 26.7154L37.5056 25.2069L56.3618 6.35072L57.8702 7.85921Z" fill="white"/>
</g>
<g clip-path="url(#clip1_119_8)">
<path d="M25.116 39.105L25.116 38.037L26.1825 38.0385L26.184 39.105L25.116 39.105ZM25.116 40.173L13.048 40.173L13.048 38.037L25.116 38.037L25.116 40.173ZM26.184 39.105L26.184 51.1729L24.048 51.1729L24.048 39.105L26.184 39.105ZM25.8702 39.8592L7.01407 58.7154L5.50557 57.2069L24.3618 38.3507L25.8702 39.8592Z" fill="#0074DD"/>
</g>
<defs>
<clipPath id="clip0_119_8">
<rect width="32" height="32" fill="white" transform="matrix(-4.37114e-08 -1 -1 4.37114e-08 64 32)"/>
</clipPath>
<clipPath id="clip1_119_8">
<rect width="32" height="32" fill="white" transform="matrix(-4.37114e-08 -1 -1 4.37114e-08 32 64)"/>
</clipPath>
</defs>
</svg>
