<?xml version="1.0" encoding="utf-8"?>
<!-- Generator: Adobe Illustrator 27.5.0, SVG Export Plug-In . SVG Version: 6.00 Build 0)  -->
<svg version="1.1" id="Layer_1" xmlns="http://www.w3.org/2000/svg" xmlns:xlink="http://www.w3.org/1999/xlink" x="0px" y="0px"
	 viewBox="0 0 24 24" style="enable-background:new 0 0 24 24;" xml:space="preserve">
<path d="M4.2,0h15.6C22.1,0,24,1.9,24,4.2v15.6c0,2.3-1.9,4.2-4.2,4.2H4.2C1.9,24,0,22.1,0,19.8V4.2C0,1.9,1.9,0,4.2,0z M22,18.3
	c-0.2-1.1-0.9-2-3-2.9c-0.7-0.3-1.6-0.6-1.8-1.1c-0.1-0.3-0.1-0.5,0-0.7c0.1-0.6,0.9-0.8,1.5-0.7c0.4,0.1,0.8,0.4,1,0.9
	c1-0.7,1-0.7,1.8-1.1c-0.3-0.4-0.4-0.6-0.6-0.8c-0.6-0.7-1.5-1.1-2.8-1l-0.7,0.1c-0.7,0.2-1.3,0.5-1.7,1c-1.1,1.3-0.8,3.5,0.6,4.5
	c1.4,1,3.4,1.2,3.6,2.2c0.2,1.2-0.9,1.5-2,1.4c-0.8-0.2-1.3-0.6-1.8-1.3l-1.8,1.1c0.2,0.5,0.4,0.7,0.8,1.1c1.7,1.8,6.1,1.7,6.9-1
	C21.9,19.8,22.2,19.2,22,18.3C22,18.2,22,18.3,22,18.3z M13.1,11h-2.2c0,1.9,0,3.9,0,5.8c0,1.2,0.1,2.4-0.1,2.7
	c-0.3,0.7-1.2,0.6-1.6,0.5c-0.4-0.2-0.6-0.5-0.8-0.9C8.2,19.1,8.2,19,8.1,19l-1.8,1.1c0.3,0.6,0.8,1.2,1.3,1.5
	c0.9,0.5,2,0.7,3.2,0.4c0.8-0.2,1.5-0.7,1.8-1.4c0.5-0.9,0.4-2.1,0.4-3.3C13.1,15.2,13,13.2,13.1,11C13,11.1,13.1,11,13.1,11z"/>
</svg>
