<svg id="Layer_1" data-name="Layer 1" xmlns="http://www.w3.org/2000/svg" viewBox="0 0 100 100"><polygon points="59.16 50 50 50 40.84 50 36.55 2.24 63.45 2.24 59.16 50"/><polygon points="52.83 58.71 50 50 47.17 41.29 91.27 22.45 99.58 48.04 52.83 58.71"/><polygon points="42.59 55.38 50 50 57.41 44.62 88.96 80.73 67.19 96.55 42.59 55.38"/><polygon points="42.59 44.62 50 50 57.41 55.38 32.81 96.55 11.04 80.73 42.59 44.62"/><polygon points="52.83 41.29 50 50 47.17 58.71 0.42 48.04 8.73 22.45 52.83 41.29"/><polygon points="59.16 50 50 50 40.84 50 36.55 2.24 63.45 2.24 59.16 50"/></svg>